<?xml version="1.0" standalone="no"?><!DOCTYPE svg PUBLIC "-//W3C//DTD SVG 1.1//EN" "http://www.w3.org/Graphics/SVG/1.1/DTD/svg11.dtd"><svg t="1622023435104" class="icon" viewBox="0 0 1024 1024" version="1.1" xmlns="http://www.w3.org/2000/svg" p-id="3221" xmlns:xlink="http://www.w3.org/1999/xlink" width="200" height="200"><defs><style type="text/css"></style></defs><path d="M991.424 585.6c-3.52-17.856-20.096-32.768-39.232-35.904-17.92-2.88-34.752 1.216-51.008 7.872-10.56 4.288-20.608 9.6-30.784 14.528-0.128-0.256-0.32-0.64-0.256-0.896 3.968-20.48-8.576-36.224-28.16-40.896-17.728-4.16-35.008-1.216-51.904 4.672-12.416 4.352-22.976 11.648-32.768 20.928-1.728-2.112-3.264-3.968-4.8-5.824-17.152-20.608-38.656-27.52-63.936-18.496-13.888 4.992-27.392 11.456-40.192 18.688C624.256 563.904 600.768 578.496 577.088 592.64 573.44 594.752 569.728 596.8 566.08 598.848c0.064 0.448 0.064 0.896 0.128 1.344C572.352 600.704 578.56 601.408 584.64 601.6c18.304 0.448 36.608 0.448 54.912 1.152 17.28 0.704 34.432 2.624 51.008 7.936 16.064 5.184 29.888 13.568 38.144 28.992 5.312 9.92 7.168 20.672 7.808 31.872 1.344 22.976-6.976 41.536-25.344 55.36-22.976 17.344-49.792 23.552-77.888 23.872-51.84 0.576-103.68 0.192-155.52 0.128-14.464 0-28.48-2.752-42.048-7.744-30.976-11.392-57.088-30.464-81.216-52.48-2.304-2.112-4.48-4.288-6.656-6.464 12.16 3.264 23.68 7.424 35.328 11.136 37.184 11.968 75.008 19.2 114.368 18.304 41.792-0.96 83.648-0.064 125.44-0.32 9.6-0.064 19.392-0.704 28.864-2.176 12.8-1.984 25.344-5.44 36.032-13.504 10.368-7.808 12.608-18.368 10.752-30.464-1.728-10.688-8.32-17.216-18.24-20.416-4.928-1.6-9.984-3.328-15.04-3.648C639.872 641.664 614.336 640.512 588.8 639.232 581.568 638.912 574.272 638.976 567.104 638.4c-24.512-1.984-47.872-8.576-70.656-17.28-20.608-7.872-40.448-17.28-58.432-30.656C404.864 565.888 371.328 541.76 335.424 521.28 311.04 507.328 285.312 499.2 256.832 501.44 235.456 503.168 215.04 508.8 195.52 517.312 146.944 538.56 98.624 560.064 50.176 581.44 44.16 584.064 38.272 586.944 32 589.824c35.264 78.272 70.4 156.16 105.6 234.496 2.048-1.28 3.712-2.24 5.312-3.2 19.008-12.224 37.888-24.64 57.088-36.608 15.232-9.408 31.744-14.208 49.408-8.384 10.24 3.392 20.352 7.616 30.016 12.544 50.624 25.728 100.928 52.032 151.552 77.632 17.856 9.024 36.032 17.6 54.656 24.832 18.304 7.104 37.632 9.6 57.408 7.168 19.712-2.432 37.12-10.304 53.76-20.416 118.72-72.704 233.92-150.784 349.632-228.16 12.864-8.64 24.896-18.624 34.56-31.04C988.608 608.896 993.92 598.4 991.424 585.6z" p-id="3222" fill="#1296db"></path><path d="M531.52 520.256c67.136 0.704 122.752-54.464 123.584-122.624 0.768-67.584-54.4-123.136-122.688-123.776C464.832 273.344 409.472 328 408.576 396.096 407.808 463.872 462.848 519.552 531.52 520.256zM519.744 342.656c0.896-0.832 2.368-1.408 3.648-1.472C532.16 341.056 540.992 341.12 550.144 341.12c0 37.312 0 74.304 0 111.68-12.16 0-24.384 0-37.056 0 0-24.704 0-49.152 0-74.112-9.536 0-18.624 0-27.712 0-0.192-0.448-0.384-0.96-0.64-1.408C496.384 365.696 508.032 354.112 519.744 342.656z" p-id="3223" fill="#1296db"></path><path d="M601.92 232.512c30.912 13.056 56.256 33.28 75.904 60.608 2.048 2.944 4.288 3.712 7.68 3.584 44.864-1.984 81.472-40.576 81.344-86.976-0.256-3.136-0.384-7.296-1.024-11.392-7.104-47.872-51.328-79.936-99.648-72.256C620.096 133.312 588.48 178.112 596.16 224.96 596.8 228.736 598.144 230.976 601.92 232.512zM672.704 172.608c0.96-0.896 2.88-0.96 4.352-1.024 5.312-0.128 10.624-0.064 16.384-0.064 0 26.24 0 52.032 0 78.144-8.448 0-16.768 0-25.728 0 0-17.216 0-34.176 0-51.776-6.72 0-12.864 0-19.968 0C656.576 188.864 664.576 180.608 672.704 172.608z" p-id="3224" fill="#1296db"></path></svg>